<svg width="140" height="120" xmlns="http://www.w3.org/2000/svg" preserveAspectRatio="xMidYMid meet">
 <metadata>Created by potrace 1.15, written by Peter Selinger 2001-2017</metadata>

 <g>
  <title>background</title>
  <rect fill="none" id="canvas_background" height="122" width="142" y="-1" x="-1"/>
 </g>
 <g class="layer">
  <title>Layer 1</title>
  <g transform="translate(0,600) scale(0.10000000149011612,-0.10000000149011612) " id="svg_1" fill="#000000">
   <path stroke-width="3" stroke-dasharray="2,2" id="svg_2" fill="#7f00ff" d="m335,5912c-48,-23 -82,-70 -129,-178c-123,-291 -185,-620 -139,-749c32,-89 115,-119 211,-75c78,35 167,146 326,402c53,86 58,123 17,123c-21,0 -41,-25 -127,-160c-113,-177 -186,-266 -245,-295c-69,-36 -99,-22 -120,53c-26,94 31,381 121,610c49,124 77,174 111,200c26,18 28,18 63,2c65,-31 143,-138 301,-415c103,-179 231,-373 289,-437c80,-89 185,-125 256,-88c17,9 40,34 52,58c63,118 -10,510 -151,812c-96,205 -220,203 -377,-9c-47,-63 -54,-90 -26,-104c26,-14 39,-5 81,56c46,67 96,117 131,130c58,22 95,-22 160,-187c89,-225 135,-428 129,-573c-4,-96 -21,-128 -69,-128c-39,0 -115,55 -165,120c-59,77 -187,278 -270,425c-205,362 -311,462 -430,407z"/>
  </g>
 </g>
</svg>