<?xml version="1.0"?>
<svg xmlns="http://www.w3.org/2000/svg" height="512px" viewBox="-31 0 479 480" width="512px" class=""><g><path d="m120.5 160h64v208h-64zm0 0" fill="#ee638c" data-original="#EE638C" class="" style="fill:#77F9F1" data-old_color="#77f9f1"/><path d="m232.5 128h64v208h-64zm0 0" fill="#8cb28c" data-original="#8CB28C" class="active-path" style="fill:#714DD2" data-old_color="#714dd2"/><path d="m344.5 224h64v208h-64zm0 0" fill="#ee638c" data-original="#EE638C" class="" style="fill:#77F9F1" data-old_color="#77f9f1"/><path d="m8.5 56h64v208h-64zm0 0" fill="#8cb28c" data-original="#8CB28C" class="active-path" style="fill:#714DD2" data-old_color="#714dd2"/><path d="m152.5 104c-4.417969 0-8 3.582031-8 8v40h-24c-4.417969 0-8 3.582031-8 8v208c0 4.417969 3.582031 8 8 8h24v32c0 4.417969 3.582031 8 8 8s8-3.582031 8-8v-32h24c4.417969 0 8-3.582031 8-8v-208c0-4.417969-3.582031-8-8-8h-24v-40c0-4.417969-3.582031-8-8-8zm24 64v192h-48v-192zm0 0" data-original="#000000" class="" style="fill:#000000"/><path d="m264.5 72c-4.417969 0-8 3.582031-8 8v40h-24c-4.417969 0-8 3.582031-8 8v208c0 4.417969 3.582031 8 8 8h24v32c0 4.417969 3.582031 8 8 8s8-3.582031 8-8v-32h24c4.417969 0 8-3.582031 8-8v-208c0-4.417969-3.582031-8-8-8h-24v-40c0-4.417969-3.582031-8-8-8zm24 64v192h-48v-192zm0 0" data-original="#000000" class="" style="fill:#000000"/><path d="m376.5 168c-4.417969 0-8 3.582031-8 8v40h-24c-4.417969 0-8 3.582031-8 8v208c0 4.417969 3.582031 8 8 8h24v32c0 4.417969 3.582031 8 8 8s8-3.582031 8-8v-32h24c4.417969 0 8-3.582031 8-8v-208c0-4.417969-3.582031-8-8-8h-24v-40c0-4.417969-3.582031-8-8-8zm24 64v192h-48v-192zm0 0" data-original="#000000" class="" style="fill:#000000"/><path d="m40.5 0c-4.417969 0-8 3.582031-8 8v40h-24c-4.417969 0-8 3.582031-8 8v208c0 4.417969 3.582031 8 8 8h24v32c0 4.417969 3.582031 8 8 8s8-3.582031 8-8v-32h24c4.417969 0 8-3.582031 8-8v-208c0-4.417969-3.582031-8-8-8h-24v-40c0-4.417969-3.582031-8-8-8zm24 64v192h-48v-192zm0 0" data-original="#000000" class="" style="fill:#000000"/></g> </svg>
