<?xml version="1.0"?>
<svg xmlns="http://www.w3.org/2000/svg" xmlns:xlink="http://www.w3.org/1999/xlink" version="1.1" id="Layer_1" x="0px" y="0px" viewBox="0 0 512 512" style="enable-background:new 0 0 512 512;" xml:space="preserve" width="512px" height="512px" class=""><g><circle style="fill:#F8F8F8" cx="227.541" cy="282.767" r="215.86" data-original="#31CCC9" class="active-path" data-old_color="#ECF4F4"/><g>
	<path style="fill:#E4F5F4" d="M487.577,79.696c10.759,0,16.164,13.005,8.546,20.621l-70.377,70.377   c-4.521,4.521-10.663,7.071-17.077,7.071h-67.795h-5.564l98.068-98.068h54.198V79.696z" data-original="#E4F5F4" class=""/>
	<path style="fill:#E4F5F4" d="M433.378,25.499v54.198l-98.068,98.068v-5.724v-67.635c0-6.414,2.55-12.555,7.071-17.077   l70.377-70.377C420.374,9.335,433.378,14.738,433.378,25.499z" data-original="#E4F5F4" class=""/>
</g><circle style="fill:#77F9F1" cx="227.541" cy="282.767" r="143.492" data-original="#FFDB6F" class="" data-old_color="#77f9f1"/><circle style="fill:#714DD2" cx="227.541" cy="282.767" r="73.757" data-original="#F27258" class="" data-old_color="#714dd2"/><g>
	<path style="fill:#201F2E" d="M293.713,152.681c2.467-6.199-0.559-13.223-6.757-15.689c-18.374-7.312-37.816-11.019-57.783-11.019   c-86.468,0-156.817,70.341-156.817,156.803S142.703,439.58,229.173,439.58c86.461,0,156.803-70.341,156.803-156.803   c0-19.891-3.682-39.287-10.942-57.653c-2.452-6.204-9.469-9.242-15.676-6.792c-6.204,2.453-9.244,9.472-6.792,15.676   c6.139,15.525,9.25,31.933,9.25,48.77c0,73.14-59.503,132.645-132.645,132.645c-73.147,0-132.658-59.505-132.658-132.645   s59.511-132.645,132.658-132.645c16.896,0,33.332,3.131,48.852,9.306C284.221,161.907,291.247,158.878,293.713,152.681z" data-original="#201F2E" class=""/>
	<path style="fill:#201F2E" d="M434.569,211.317c-6.414,1.836-10.125,8.523-8.29,14.936c5.236,18.302,7.892,37.32,7.892,56.522   c0,113.044-91.962,205.014-204.999,205.014c-113.044,0-205.013-91.969-205.013-205.014S116.127,77.763,229.172,77.763   c19.246,0,38.296,2.667,56.618,7.928c6.413,1.84,13.103-1.864,14.943-8.277c1.841-6.413-1.864-13.103-8.277-14.944   c-20.489-5.884-41.782-8.868-63.284-8.868C102.806,53.604,0,156.41,0,282.776s102.806,229.173,229.172,229.173   c126.358,0,229.158-102.806,229.158-229.173c0-21.452-2.969-42.705-8.824-63.168C447.671,213.193,440.987,209.486,434.569,211.317z   " data-original="#201F2E" class=""/>
	<path style="fill:#201F2E" d="M229.172,222.487c1.857,0,3.675,0.081,5.406,0.24c6.649,0.61,12.525-4.276,13.138-10.92   c0.612-6.642-4.277-12.524-10.92-13.138c-2.464-0.227-5.029-0.342-7.623-0.342c-46.565,0-84.449,37.882-84.449,84.448   c0,46.558,37.884,84.434,84.449,84.434c46.557,0,84.434-37.876,84.434-84.434c0-2.462-0.11-4.944-0.327-7.375   c-0.592-6.645-6.462-11.525-13.105-10.958c-6.645,0.593-11.552,6.461-10.958,13.106c0.153,1.72,0.231,3.479,0.231,5.228   c0,33.237-27.04,60.275-60.275,60.275c-33.244,0-60.29-27.04-60.29-60.275C168.883,249.532,195.928,222.487,229.172,222.487z" data-original="#201F2E" class=""/>
	<path style="fill:#201F2E" d="M510.149,81.264c-3.753-9.062-12.517-14.918-22.326-14.918h-42.119V24.228   c0-9.81-5.856-18.573-14.918-22.326c-9.058-3.752-19.391-1.695-26.325,5.239l-70.376,70.377   c-6.842,6.841-10.609,15.939-10.609,25.618v68.355l-98.17,98.17c-4.717,4.717-4.717,12.366,0,17.084   c2.358,2.358,5.45,3.538,8.541,3.538s6.183-1.18,8.541-3.538l98.171-98.171h68.355c9.679,0,18.778-3.768,25.618-10.608   l70.377-70.379C511.845,100.652,513.901,90.321,510.149,81.264z M347.636,103.135c0-3.225,1.255-6.257,3.533-8.534l70.376-70.366   v49.188l-73.911,73.911v-44.198H347.636z M417.45,160.882c-2.244,2.244-5.356,3.533-8.535,3.533h-44.196l73.909-73.909   l49.192,0.006L417.45,160.882z" data-original="#201F2E" class=""/>
</g></g> </svg>
